<svg t="1614757797230" class="icon" viewBox="0 0 1024 1024" version="1.1" xmlns="http://www.w3.org/2000/svg" p-id="1202" width="200" height="200"><path d="M512 960C264.576 960 64 759.424 64 512S264.576 64 512 64s448 200.576 448 448-200.576 448-448 448z m0-60c214.286 0 388-173.714 388-388S726.286 124 512 124 124 297.714 124 512s173.714 388 388 388z" p-id="1203" fill="#000000"></path><path d="M574.197 574.197L677.86 346.141 449.803 449.803 346.14 677.859l228.056-103.662zM258.415 725.86l141.421-311.127a30 30 0 0 1 14.897-14.897L725.86 258.415c25.235-11.47 51.196 14.49 39.725 39.725L624.164 609.267a30 30 0 0 1-14.897 14.897L298.14 765.585c-25.235 11.47-51.196-14.49-39.725-39.725z" p-id="1204" fill="#000000"></path><path d="M512 452c-33.137 0-60 26.863-60 60s26.863 60 60 60 60-26.863 60-60-26.863-60-60-60z" p-id="1205" fill="#000000"></path></svg>